<svg xmlns="http://www.w3.org/2000/svg" width="21" height="19" viewBox="0 0 21 19" fill="none">
<path d="M14.8907 0.748322C14.1436 0.748322 13.4038 0.895523 12.7136 1.18151C12.0234 1.46748 11.3964 1.8866 10.8682 2.41495C10.6978 2.58541 10.4211 2.58541 10.2507 2.41495C9.18384 1.34813 7.73691 0.748791 6.2282 0.748791C4.71948 0.748791 3.27255 1.34813 2.20573 2.41495C1.1389 3.48178 0.539566 4.9287 0.539566 6.43742C0.539566 7.94614 1.1389 9.39306 2.20573 10.4599L9.94073 18.1949C10.1048 18.359 10.3274 18.4512 10.5594 18.4512C10.7915 18.4512 11.0141 18.359 11.1782 18.1949L12.6668 16.7063C12.8912 16.4818 12.8509 16.1081 12.6111 15.9C12.4739 15.781 12.3441 15.6538 12.2222 15.5192C12.0125 15.2876 11.6459 15.2523 11.4249 15.4732L10.913 15.9852C10.7177 16.1804 10.4012 16.1804 10.2059 15.9852L3.44316 9.22245C2.70453 8.48382 2.28957 7.48201 2.28957 6.43742C2.28957 5.39283 2.70453 4.39102 3.44316 3.65239C4.1818 2.91375 5.18361 2.49879 6.2282 2.49879C7.27278 2.49879 8.27459 2.91375 9.01323 3.65239L9.94073 4.57989C10.2824 4.9216 10.8365 4.9216 11.1782 4.57989L12.1057 3.65239C12.4713 3.28656 12.9056 2.99622 13.3835 2.79822C13.8613 2.60023 14.3735 2.49832 14.8907 2.49832C15.4079 2.49832 15.9201 2.60023 16.3979 2.79822C16.8758 2.99622 17.3099 3.28642 17.6756 3.65224C18.0414 4.0179 18.3319 4.45234 18.5299 4.93018C18.7279 5.40802 18.8298 5.92019 18.8298 6.43742C18.8298 6.95465 18.7279 7.46682 18.5299 7.94466C18.4759 8.07502 18.415 8.20212 18.3476 8.32547C18.2115 8.57464 18.2669 8.89442 18.4827 9.07899C18.6283 9.20356 18.7659 9.33726 18.8945 9.47921C19.1213 9.72944 19.5288 9.74864 19.7085 9.46268C19.8776 9.19338 20.0243 8.90974 20.1466 8.61455C20.4326 7.92434 20.5798 7.18454 20.5798 6.43742C20.5798 5.6903 20.4326 4.9505 20.1466 4.26029C19.8606 3.57008 19.4414 2.94298 18.913 2.41481C18.3849 1.88653 17.7579 1.46745 17.0678 1.18151C16.3776 0.895523 15.6378 0.748322 14.8907 0.748322Z" fill="#757575"/>
<path d="M11.0591 12.75C11.0591 12.3358 11.3949 12 11.8091 12H19.8091C20.2233 12 20.5591 12.3358 20.5591 12.75C20.5591 13.1642 20.2233 13.5 19.8091 13.5H11.8091C11.3949 13.5 11.0591 13.1642 11.0591 12.75Z" fill="#757575"/>
<path d="M15.8091 8C16.2233 8 16.5591 8.33579 16.5591 8.75V16.75C16.5591 17.1642 16.2233 17.5 15.8091 17.5C15.3949 17.5 15.0591 17.1642 15.0591 16.75V8.75C15.0591 8.33579 15.3949 8 15.8091 8Z" fill="#757575"/>
</svg>