<svg xmlns="http://www.w3.org/2000/svg" width="21" height="20" viewBox="0 0 21 20" fill="none">
<path d="M5.5 8L1.85045 5.97247C1.49473 5.77485 1.51147 5.25773 1.87923 5.08352L10.286 1.10139C10.4214 1.03721 10.5786 1.03721 10.714 1.10139L19.1208 5.08352C19.4885 5.25773 19.5053 5.77485 19.1496 5.97247L15.5 8M5.5 8L10.2764 10.3882C10.4172 10.4586 10.5828 10.4586 10.7236 10.3882L15.5 8M5.5 8L1.94261 9.58106C1.56091 9.75071 1.54317 10.2859 1.91281 10.4804L4.89134 12.0481M15.5 8L19.0574 9.58106C19.4391 9.75071 19.4568 10.2859 19.0872 10.4804L16.1087 12.0481M4.89134 12.0481L10.2671 14.8774C10.4129 14.9542 10.5871 14.9542 10.7329 14.8774L16.1087 12.0481M4.89134 12.0481L1.86968 13.5638C1.50593 13.7462 1.50087 14.2636 1.86098 14.4531L10.2671 18.8774C10.4129 18.9542 10.5871 18.9542 10.7329 18.8774L19.139 14.4531C19.4991 14.2636 19.4941 13.7462 19.1303 13.5638L16.1087 12.0481" stroke="#E37F1D" stroke-width="1.5"/>
</svg>