<svg xmlns="http://www.w3.org/2000/svg" width="19" height="21" viewBox="0 0 19 21" fill="none">
<path fill-rule="evenodd" clip-rule="evenodd" d="M17.9122 7.18432L10.0372 1.05932C9.72123 0.81356 9.27877 0.81356 8.9628 1.05932L1.0878 7.18432C0.874664 7.35009 0.75 7.60498 0.75 7.875V17.5C0.75 18.1962 1.02656 18.8639 1.51884 19.3562C2.01113 19.8484 2.67881 20.125 3.375 20.125H6.875C7.35825 20.125 7.75 19.7332 7.75 19.25V18.375V18V12.375C7.75 11.8227 8.19772 11.375 8.75 11.375H10.25C10.8023 11.375 11.25 11.8227 11.25 12.375V18V18.375V19.25C11.25 19.7332 11.6418 20.125 12.125 20.125H15.625C16.3212 20.125 16.9889 19.8484 17.4812 19.3562C17.9734 18.8639 18.25 18.1962 18.25 17.5V7.875C18.25 7.60498 18.1253 7.35009 17.9122 7.18432ZM13 10.5V17.375C13 17.9273 13.4477 18.375 14 18.375H15.625C15.8571 18.375 16.0796 18.2828 16.2437 18.1187C16.4078 17.9546 16.5 17.7321 16.5 17.5V8.79203C16.5 8.48344 16.3575 8.19214 16.1139 8.00268L10.1139 3.33601C9.75283 3.05515 9.24717 3.05515 8.88606 3.33601L2.88606 8.00268C2.64247 8.19214 2.5 8.48344 2.5 8.79203V17.5C2.5 17.7321 2.59219 17.9546 2.75628 18.1187C2.92038 18.2828 3.14294 18.375 3.375 18.375H5C5.55228 18.375 6 17.9273 6 17.375V10.5C6 10.0168 6.39175 9.625 6.875 9.625H12.125C12.6082 9.625 13 10.0168 13 10.5Z" fill="#757575"/>
</svg>