<svg xmlns="http://www.w3.org/2000/svg" width="26" height="22" viewBox="0 0 26 22" fill="none">
<path fill-rule="evenodd" clip-rule="evenodd" d="M1.78247 12.25C1.85319 12.6961 2.04718 13.1951 2.43994 13.622C2.97438 14.203 3.96883 14.75 5.81187 14.75C7.65488 14.75 8.64948 14.2031 9.18408 13.622C9.57693 13.195 9.77103 12.6961 9.84185 12.25H1.78247ZM0.253059 11.6903C0.275863 11.1222 0.753341 10.75 1.24168 10.75H10.3828C10.8712 10.75 11.3487 11.1223 11.3714 11.6905C11.4053 12.5388 11.1588 13.6911 10.2879 14.6376C9.40255 15.5999 7.96443 16.25 5.81187 16.25C3.65929 16.25 2.22123 15.5999 1.33596 14.6375C0.465268 13.691 0.219012 12.5386 0.253059 11.6903Z" fill="#757575"/>
<path fill-rule="evenodd" clip-rule="evenodd" d="M16.2191 12.25C16.2898 12.6961 16.4838 13.1951 16.8766 13.622C17.411 14.203 18.4054 14.75 20.2485 14.75C22.0915 14.75 23.0861 14.2031 23.6207 13.622C24.0135 13.195 24.2076 12.6961 24.2785 12.25H16.2191ZM14.6897 11.6903C14.7125 11.1222 15.19 10.75 15.6783 10.75H24.8194C25.3078 10.75 25.7853 11.1223 25.808 11.6905C25.8419 12.5388 25.5954 13.6911 24.7246 14.6376C23.8392 15.5999 22.401 16.25 20.2485 16.25C18.0959 16.25 16.6578 15.5999 15.7726 14.6375C14.9019 13.691 14.6556 12.5386 14.6897 11.6903Z" fill="#757575"/>
<path d="M12.0681 0.72183C12.0681 0.323174 12.3913 0 12.7899 0C13.1886 0 13.5117 0.323175 13.5117 0.721831V18.2782C13.5117 18.6768 13.1886 19 12.7899 19C12.3913 19 12.0681 18.6768 12.0681 18.2782V0.72183Z" fill="#757575"/>
<path fill-rule="evenodd" clip-rule="evenodd" d="M12.7899 0C12.3913 0 12.0681 0.323174 12.0681 0.72183V18.2782C12.0681 18.6768 12.3913 19 12.7899 19C13.1886 19 13.5117 18.6768 13.5117 18.2782V0.721831C13.5117 0.323175 13.1886 0 12.7899 0Z" fill="#757575"/>
<path d="M5.33099 3.25C5.33099 2.83579 5.66678 2.5 6.08099 2.5H19.9801C20.3943 2.5 20.7301 2.83579 20.7301 3.25C20.7301 3.66421 20.3943 4 19.9801 4H6.08099C5.66678 4 5.33099 3.66421 5.33099 3.25Z" fill="#757575"/>
<path fill-rule="evenodd" clip-rule="evenodd" d="M6.08099 2.5C5.66678 2.5 5.33099 2.83579 5.33099 3.25C5.33099 3.66421 5.66678 4 6.08099 4H19.9801C20.3943 4 20.7301 3.66421 20.7301 3.25C20.7301 2.83579 20.3943 2.5 19.9801 2.5H6.08099Z" fill="#757575"/>
<path fill-rule="evenodd" clip-rule="evenodd" d="M1.94244 11.0535C1.80143 11.3834 2.04345 11.75 2.4022 11.75H9.22223C9.58098 11.75 9.82299 11.3834 9.68199 11.0535L6.27198 3.07563C6.09902 2.67099 5.52541 2.67099 5.35245 3.07563L1.94244 11.0535ZM5.81221 5.81644L3.91715 10.25H7.70727L5.81221 5.81644Z" fill="#757575"/>
<path fill-rule="evenodd" clip-rule="evenodd" d="M16.3791 11.0535C16.2381 11.3834 16.4801 11.75 16.8388 11.75H23.6588C24.0176 11.75 24.2596 11.3834 24.1186 11.0535L20.7086 3.07563C20.5356 2.67099 19.962 2.67099 19.7891 3.07563L16.3791 11.0535ZM20.2488 5.81644L18.3538 10.25H22.1439L20.2488 5.81644Z" fill="#757575"/>
<path d="M7.25587 18.75C7.25587 18.3358 7.59166 18 8.00587 18H17.0927C17.5069 18 17.8427 18.3358 17.8427 18.75C17.8427 19.1642 17.5069 19.5 17.0927 19.5H8.00587C7.59166 19.5 7.25587 19.1642 7.25587 18.75Z" fill="#757575"/>
<path fill-rule="evenodd" clip-rule="evenodd" d="M8.00587 18C7.59166 18 7.25587 18.3358 7.25587 18.75C7.25587 19.1642 7.59166 19.5 8.00587 19.5H17.0927C17.5069 19.5 17.8427 19.1642 17.8427 18.75C17.8427 18.3358 17.5069 18 17.0927 18H8.00587Z" fill="#757575"/>
<path d="M5.33099 20.75C5.33099 20.3358 5.66678 20 6.08099 20H19.0176C19.4318 20 19.7676 20.3358 19.7676 20.75C19.7676 21.1642 19.4318 21.5 19.0176 21.5H6.08099C5.66678 21.5 5.33099 21.1642 5.33099 20.75Z" fill="#757575"/>
<path fill-rule="evenodd" clip-rule="evenodd" d="M6.08099 20C5.66678 20 5.33099 20.3358 5.33099 20.75C5.33099 21.1642 5.66678 21.5 6.08099 21.5H19.0176C19.4318 21.5 19.7676 21.1642 19.7676 20.75C19.7676 20.3358 19.4318 20 19.0176 20H6.08099Z" fill="#757575"/>
</svg>